<svg xmlns="http://www.w3.org/2000/svg" xmlns:xlink="http://www.w3.org/1999/xlink" width="196" zoomAndPan="magnify" viewBox="0 0 147 102.749999" height="137" preserveAspectRatio="xMidYMid meet" version="1.0"><defs><g/><clipPath id="3a6d11cd83"><path d="M 46.273438 0.410156 L 103.117188 0.410156 L 103.117188 57.253906 L 46.273438 57.253906 Z M 46.273438 0.410156 " clip-rule="nonzero"/></clipPath></defs><g clip-path="url(#3a6d11cd83)"><path fill="#ffffff" d="M 59.890625 43.535156 C 60.472656 47.097656 61.324219 50.597656 62.441406 54.03125 L 61.875 54.03125 C 59.148438 52.71875 56.710938 50.992188 54.570312 48.851562 C 52.429688 46.710938 50.703125 44.277344 49.394531 41.546875 L 49.394531 40.980469 C 52.828125 42.101562 56.324219 42.953125 59.890625 43.535156 Z M 89.394531 43.535156 C 88.84375 47.199219 87.992188 50.792969 86.839844 54.316406 C 89.660156 52.964844 92.1875 51.195312 94.421875 49.011719 C 96.65625 46.824219 98.480469 44.335938 99.890625 41.546875 L 99.890625 40.980469 C 96.464844 42.132812 92.964844 42.984375 89.394531 43.535156 Z M 100.175781 16.582031 C 98.796875 13.652344 96.964844 11.039062 94.671875 8.75 C 92.382812 6.460938 89.773438 4.625 86.839844 3.25 C 87.992188 6.769531 88.84375 10.363281 89.394531 14.03125 C 93.058594 14.578125 96.652344 15.429688 100.175781 16.582031 Z M 49.109375 16.582031 C 52.632812 15.429688 56.226562 14.578125 59.890625 14.03125 C 60.441406 10.457031 61.289062 6.957031 62.441406 3.53125 L 61.875 3.53125 C 59.085938 4.945312 56.601562 6.769531 54.414062 9.003906 C 52.226562 11.238281 50.460938 13.765625 49.109375 16.582031 Z M 84.570312 13.460938 C 83.71875 9.488281 82.871094 5.800781 81.734375 1.832031 C 81.714844 1.601562 81.621094 1.414062 81.449219 1.261719 C 79.21875 0.679688 76.949219 0.398438 74.640625 0.410156 C 72.242188 0.398438 69.878906 0.683594 67.550781 1.261719 L 67.550781 1.832031 C 66.414062 5.800781 65.5625 9.488281 64.710938 13.460938 C 71.332031 12.605469 77.953125 12.605469 84.570312 13.460938 Z M 59.320312 18.851562 L 47.691406 21.6875 L 47.125 21.6875 C 46.515625 24.015625 46.234375 26.378906 46.273438 28.78125 C 46.257812 31.179688 46.542969 33.546875 47.125 35.875 L 47.691406 35.875 L 59.320312 38.710938 C 58.464844 32.089844 58.464844 25.472656 59.320312 18.851562 Z M 102.160156 21.972656 L 101.59375 21.972656 L 89.960938 19.136719 C 90.816406 25.753906 90.816406 32.375 89.960938 38.996094 L 101.59375 36.15625 L 102.160156 36.15625 C 102.765625 33.734375 103.050781 31.277344 103.011719 28.78125 C 103.027344 26.476562 102.742188 24.207031 102.160156 21.972656 Z M 64.710938 44.101562 C 65.5625 48.074219 66.414062 51.761719 67.550781 55.734375 L 67.550781 56.300781 C 69.878906 56.882812 72.242188 57.164062 74.640625 57.152344 C 76.949219 57.164062 79.21875 56.882812 81.449219 56.300781 C 81.621094 56.148438 81.714844 55.960938 81.734375 55.734375 C 82.871094 51.761719 83.71875 48.074219 84.570312 44.101562 L 74.640625 44.667969 Z M 64.144531 18.285156 C 63.003906 25.28125 63.003906 32.28125 64.144531 39.277344 C 71.144531 40.417969 78.140625 40.417969 85.140625 39.277344 C 86.28125 32.28125 86.28125 25.28125 85.140625 18.285156 C 78.140625 17.144531 71.144531 17.144531 64.144531 18.285156 Z M 64.144531 18.285156 " fill-opacity="1" fill-rule="nonzero"/></g><g fill="#ffffff" fill-opacity="1"><g transform="translate(8.950798, 81.863573)"><g><path d="M 7.78125 -13.65625 C 8.84375 -13.65625 9.796875 -13.46875 10.640625 -13.09375 C 11.484375 -12.71875 12.195312 -12.210938 12.78125 -11.578125 C 13.375 -10.953125 13.828125 -10.21875 14.140625 -9.375 C 14.460938 -8.539062 14.625 -7.671875 14.625 -6.765625 C 14.625 -5.742188 14.4375 -4.804688 14.0625 -3.953125 C 13.695312 -3.097656 13.1875 -2.363281 12.53125 -1.75 C 11.875 -1.132812 11.113281 -0.65625 10.25 -0.3125 C 9.394531 0.03125 8.476562 0.203125 7.5 0.203125 C 6.445312 0.203125 5.503906 0.015625 4.671875 -0.359375 C 3.835938 -0.742188 3.128906 -1.25 2.546875 -1.875 C 1.972656 -2.5 1.53125 -3.21875 1.21875 -4.03125 C 0.90625 -4.84375 0.75 -5.691406 0.75 -6.578125 C 0.75 -7.453125 0.90625 -8.3125 1.21875 -9.15625 C 1.53125 -10.007812 1.988281 -10.765625 2.59375 -11.421875 C 3.195312 -12.085938 3.929688 -12.625 4.796875 -13.03125 C 5.671875 -13.445312 6.664062 -13.65625 7.78125 -13.65625 Z M 7.765625 -0.515625 C 8.671875 -0.554688 9.46875 -0.757812 10.15625 -1.125 C 10.84375 -1.5 11.414062 -1.972656 11.875 -2.546875 C 12.34375 -3.128906 12.6875 -3.765625 12.90625 -4.453125 C 13.132812 -5.148438 13.25 -5.835938 13.25 -6.515625 C 13.25 -7.265625 13.109375 -8.019531 12.828125 -8.78125 C 12.554688 -9.539062 12.171875 -10.226562 11.671875 -10.84375 C 11.171875 -11.46875 10.570312 -11.972656 9.875 -12.359375 C 9.175781 -12.742188 8.390625 -12.9375 7.515625 -12.9375 C 6.671875 -12.9375 5.914062 -12.75 5.25 -12.375 C 4.59375 -12 4.03125 -11.519531 3.5625 -10.9375 C 3.09375 -10.351562 2.734375 -9.703125 2.484375 -8.984375 C 2.242188 -8.265625 2.125 -7.554688 2.125 -6.859375 C 2.125 -6.117188 2.265625 -5.367188 2.546875 -4.609375 C 2.828125 -3.859375 3.21875 -3.175781 3.71875 -2.5625 C 4.226562 -1.957031 4.828125 -1.460938 5.515625 -1.078125 C 6.203125 -0.703125 6.953125 -0.515625 7.765625 -0.515625 Z M 7.765625 -0.515625 "/></g></g></g><g fill="#ffffff" fill-opacity="1"><g transform="translate(24.456461, 81.863573)"><g><path d="M 9.109375 -1.328125 C 9.109375 -1.210938 9.117188 -1.09375 9.140625 -0.96875 C 9.171875 -0.84375 9.21875 -0.722656 9.28125 -0.609375 C 9.34375 -0.503906 9.410156 -0.410156 9.484375 -0.328125 C 9.554688 -0.242188 9.648438 -0.203125 9.765625 -0.203125 L 9.765625 0 L 7.125 0 L 7.125 -0.203125 C 7.226562 -0.203125 7.316406 -0.242188 7.390625 -0.328125 C 7.472656 -0.410156 7.546875 -0.503906 7.609375 -0.609375 C 7.671875 -0.722656 7.710938 -0.84375 7.734375 -0.96875 C 7.765625 -1.09375 7.78125 -1.210938 7.78125 -1.328125 L 7.78125 -5.109375 C 7.78125 -5.597656 7.710938 -6.023438 7.578125 -6.390625 C 7.441406 -6.765625 7.257812 -7.070312 7.03125 -7.3125 C 6.800781 -7.5625 6.539062 -7.742188 6.25 -7.859375 C 5.957031 -7.972656 5.660156 -8.03125 5.359375 -8.03125 C 5.054688 -8.03125 4.757812 -7.96875 4.46875 -7.84375 C 4.175781 -7.71875 3.914062 -7.554688 3.6875 -7.359375 C 3.46875 -7.160156 3.285156 -6.929688 3.140625 -6.671875 C 3.003906 -6.410156 2.9375 -6.132812 2.9375 -5.84375 L 2.9375 -1.328125 C 2.9375 -1.210938 2.945312 -1.09375 2.96875 -0.96875 C 3 -0.84375 3.046875 -0.722656 3.109375 -0.609375 C 3.171875 -0.503906 3.238281 -0.410156 3.3125 -0.328125 C 3.382812 -0.242188 3.476562 -0.203125 3.59375 -0.203125 L 3.59375 0 L 0.9375 0 L 0.9375 -0.203125 C 1.03125 -0.203125 1.117188 -0.242188 1.203125 -0.328125 C 1.285156 -0.410156 1.351562 -0.503906 1.40625 -0.609375 C 1.46875 -0.722656 1.515625 -0.84375 1.546875 -0.96875 C 1.578125 -1.09375 1.59375 -1.210938 1.59375 -1.328125 L 1.59375 -6.953125 C 1.59375 -7.179688 1.554688 -7.398438 1.484375 -7.609375 C 1.421875 -7.816406 1.222656 -7.929688 0.890625 -7.953125 L 0.890625 -8.125 L 2.9375 -8.78125 L 2.9375 -7.65625 C 3.03125 -7.769531 3.148438 -7.890625 3.296875 -8.015625 C 3.453125 -8.148438 3.632812 -8.273438 3.84375 -8.390625 C 4.050781 -8.503906 4.289062 -8.597656 4.5625 -8.671875 C 4.84375 -8.742188 5.175781 -8.78125 5.5625 -8.78125 C 6.195312 -8.78125 6.738281 -8.671875 7.1875 -8.453125 C 7.632812 -8.234375 8 -7.953125 8.28125 -7.609375 C 8.570312 -7.265625 8.78125 -6.882812 8.90625 -6.46875 C 9.039062 -6.050781 9.109375 -5.644531 9.109375 -5.25 Z M 9.109375 -1.328125 "/></g></g></g><g fill="#ffffff" fill-opacity="1"><g transform="translate(35.29616, 81.863573)"><g><path d="M 2.03125 -4.109375 C 2.09375 -3.640625 2.210938 -3.191406 2.390625 -2.765625 C 2.566406 -2.335938 2.800781 -1.957031 3.09375 -1.625 C 3.382812 -1.300781 3.738281 -1.039062 4.15625 -0.84375 C 4.570312 -0.644531 5.0625 -0.546875 5.625 -0.546875 C 5.925781 -0.546875 6.238281 -0.585938 6.5625 -0.671875 C 6.894531 -0.765625 7.203125 -0.890625 7.484375 -1.046875 C 7.773438 -1.210938 8.03125 -1.414062 8.25 -1.65625 C 8.476562 -1.894531 8.632812 -2.164062 8.71875 -2.46875 L 8.90625 -2.46875 L 8.90625 -0.9375 C 8.820312 -0.9375 8.726562 -0.910156 8.625 -0.859375 C 8.519531 -0.804688 8.398438 -0.738281 8.265625 -0.65625 C 7.992188 -0.488281 7.628906 -0.3125 7.171875 -0.125 C 6.710938 0.0507812 6.101562 0.140625 5.34375 0.140625 C 4.726562 0.140625 4.144531 0.0507812 3.59375 -0.125 C 3.039062 -0.300781 2.550781 -0.570312 2.125 -0.9375 C 1.707031 -1.300781 1.375 -1.769531 1.125 -2.34375 C 0.875 -2.914062 0.75 -3.59375 0.75 -4.375 C 0.75 -4.882812 0.832031 -5.394531 1 -5.90625 C 1.175781 -6.425781 1.4375 -6.890625 1.78125 -7.296875 C 2.125 -7.710938 2.566406 -8.050781 3.109375 -8.3125 C 3.660156 -8.570312 4.316406 -8.703125 5.078125 -8.703125 C 5.753906 -8.703125 6.347656 -8.582031 6.859375 -8.34375 C 7.367188 -8.113281 7.789062 -7.796875 8.125 -7.390625 C 8.457031 -6.984375 8.703125 -6.5 8.859375 -5.9375 C 9.023438 -5.382812 9.109375 -4.773438 9.109375 -4.109375 Z M 4.984375 -8.03125 C 4.515625 -8.03125 4.101562 -7.929688 3.75 -7.734375 C 3.40625 -7.546875 3.109375 -7.300781 2.859375 -7 C 2.617188 -6.707031 2.429688 -6.367188 2.296875 -5.984375 C 2.160156 -5.609375 2.070312 -5.226562 2.03125 -4.84375 L 7.84375 -4.84375 C 7.832031 -5.238281 7.757812 -5.625 7.625 -6 C 7.5 -6.382812 7.320312 -6.726562 7.09375 -7.03125 C 6.863281 -7.332031 6.570312 -7.570312 6.21875 -7.75 C 5.863281 -7.9375 5.453125 -8.03125 4.984375 -8.03125 Z M 4.984375 -8.03125 "/></g></g></g><g fill="#ffffff" fill-opacity="1"><g transform="translate(45.178221, 81.863573)"><g/></g></g><g fill="#ffffff" fill-opacity="1"><g transform="translate(50.475819, 81.863573)"><g><path d="M 0.921875 -0.203125 L 1.015625 -0.203125 C 1.128906 -0.203125 1.222656 -0.238281 1.296875 -0.3125 C 1.378906 -0.382812 1.453125 -0.472656 1.515625 -0.578125 C 1.578125 -0.691406 1.625 -0.8125 1.65625 -0.9375 C 1.695312 -1.0625 1.71875 -1.175781 1.71875 -1.28125 L 1.71875 -12.1875 C 1.71875 -12.28125 1.695312 -12.382812 1.65625 -12.5 C 1.625 -12.625 1.578125 -12.738281 1.515625 -12.84375 C 1.453125 -12.957031 1.378906 -13.050781 1.296875 -13.125 C 1.222656 -13.207031 1.128906 -13.25 1.015625 -13.25 L 0.921875 -13.25 L 0.921875 -13.453125 L 3.84375 -13.453125 L 3.84375 -13.25 L 3.75 -13.25 C 3.644531 -13.25 3.550781 -13.207031 3.46875 -13.125 C 3.382812 -13.050781 3.3125 -12.957031 3.25 -12.84375 C 3.195312 -12.738281 3.15625 -12.625 3.125 -12.5 C 3.09375 -12.382812 3.078125 -12.28125 3.078125 -12.1875 L 3.078125 -0.75 L 7.53125 -0.75 C 7.789062 -0.75 8.015625 -0.8125 8.203125 -0.9375 C 8.398438 -1.0625 8.5625 -1.210938 8.6875 -1.390625 C 8.820312 -1.578125 8.914062 -1.773438 8.96875 -1.984375 C 9.03125 -2.191406 9.0625 -2.382812 9.0625 -2.5625 L 9.265625 -2.5625 L 9.265625 0 L 0.921875 0 Z M 0.921875 -0.203125 "/></g></g></g><g fill="#ffffff" fill-opacity="1"><g transform="translate(59.950368, 81.863573)"><g><path d="M 1.203125 0 L 1.203125 -0.203125 C 1.304688 -0.203125 1.398438 -0.242188 1.484375 -0.328125 C 1.566406 -0.410156 1.632812 -0.503906 1.6875 -0.609375 C 1.738281 -0.722656 1.78125 -0.84375 1.8125 -0.96875 C 1.84375 -1.09375 1.859375 -1.210938 1.859375 -1.328125 L 1.859375 -6.96875 C 1.859375 -7.195312 1.820312 -7.414062 1.75 -7.625 C 1.6875 -7.84375 1.488281 -7.957031 1.15625 -7.96875 L 1.15625 -8.15625 L 3.203125 -8.796875 L 3.203125 -1.328125 C 3.203125 -1.210938 3.210938 -1.09375 3.234375 -0.96875 C 3.265625 -0.84375 3.304688 -0.722656 3.359375 -0.609375 C 3.410156 -0.503906 3.476562 -0.410156 3.5625 -0.328125 C 3.644531 -0.242188 3.738281 -0.203125 3.84375 -0.203125 L 3.84375 0 Z M 1.296875 -10.765625 C 1.296875 -11.035156 1.390625 -11.265625 1.578125 -11.453125 C 1.765625 -11.640625 1.992188 -11.734375 2.265625 -11.734375 C 2.535156 -11.734375 2.765625 -11.640625 2.953125 -11.453125 C 3.140625 -11.265625 3.234375 -11.035156 3.234375 -10.765625 C 3.234375 -10.484375 3.140625 -10.253906 2.953125 -10.078125 C 2.765625 -9.910156 2.535156 -9.828125 2.265625 -9.828125 C 1.992188 -9.828125 1.765625 -9.910156 1.578125 -10.078125 C 1.390625 -10.253906 1.296875 -10.484375 1.296875 -10.765625 Z M 1.296875 -10.765625 "/></g></g></g><g fill="#ffffff" fill-opacity="1"><g transform="translate(65.064588, 81.863573)"><g><path d="M 2.8125 -7.859375 L 2.8125 -1.328125 C 2.8125 -1.210938 2.820312 -1.09375 2.84375 -0.96875 C 2.875 -0.84375 2.921875 -0.722656 2.984375 -0.609375 C 3.046875 -0.503906 3.113281 -0.410156 3.1875 -0.328125 C 3.257812 -0.242188 3.351562 -0.203125 3.46875 -0.203125 L 3.46875 0 L 0.8125 0 L 0.8125 -0.203125 C 0.90625 -0.203125 0.992188 -0.242188 1.078125 -0.328125 C 1.160156 -0.410156 1.234375 -0.503906 1.296875 -0.609375 C 1.359375 -0.722656 1.398438 -0.84375 1.421875 -0.96875 C 1.453125 -1.09375 1.46875 -1.210938 1.46875 -1.328125 L 1.46875 -7.859375 L 0.453125 -7.859375 L 0.453125 -8.5625 L 1.46875 -8.5625 L 1.46875 -10.203125 C 1.46875 -10.628906 1.476562 -11.035156 1.5 -11.421875 C 1.53125 -11.816406 1.613281 -12.171875 1.75 -12.484375 C 1.882812 -12.796875 2.09375 -13.046875 2.375 -13.234375 C 2.65625 -13.429688 3.039062 -13.53125 3.53125 -13.53125 C 3.800781 -13.53125 4.03125 -13.5 4.21875 -13.4375 C 4.414062 -13.375 4.585938 -13.304688 4.734375 -13.234375 C 4.878906 -13.160156 5 -13.09375 5.09375 -13.03125 C 5.1875 -12.96875 5.269531 -12.9375 5.34375 -12.9375 L 5.34375 -11.453125 L 5.15625 -11.453125 C 5.082031 -11.847656 4.90625 -12.175781 4.625 -12.4375 C 4.34375 -12.707031 4.054688 -12.84375 3.765625 -12.84375 C 3.367188 -12.84375 3.109375 -12.632812 2.984375 -12.21875 C 2.867188 -11.800781 2.8125 -11.226562 2.8125 -10.5 L 2.8125 -8.5625 L 5.109375 -8.5625 L 5.109375 -7.859375 Z M 2.8125 -7.859375 "/></g></g></g><g fill="#ffffff" fill-opacity="1"><g transform="translate(70.769692, 81.863573)"><g><path d="M 2.03125 -4.109375 C 2.09375 -3.640625 2.210938 -3.191406 2.390625 -2.765625 C 2.566406 -2.335938 2.800781 -1.957031 3.09375 -1.625 C 3.382812 -1.300781 3.738281 -1.039062 4.15625 -0.84375 C 4.570312 -0.644531 5.0625 -0.546875 5.625 -0.546875 C 5.925781 -0.546875 6.238281 -0.585938 6.5625 -0.671875 C 6.894531 -0.765625 7.203125 -0.890625 7.484375 -1.046875 C 7.773438 -1.210938 8.03125 -1.414062 8.25 -1.65625 C 8.476562 -1.894531 8.632812 -2.164062 8.71875 -2.46875 L 8.90625 -2.46875 L 8.90625 -0.9375 C 8.820312 -0.9375 8.726562 -0.910156 8.625 -0.859375 C 8.519531 -0.804688 8.398438 -0.738281 8.265625 -0.65625 C 7.992188 -0.488281 7.628906 -0.3125 7.171875 -0.125 C 6.710938 0.0507812 6.101562 0.140625 5.34375 0.140625 C 4.726562 0.140625 4.144531 0.0507812 3.59375 -0.125 C 3.039062 -0.300781 2.550781 -0.570312 2.125 -0.9375 C 1.707031 -1.300781 1.375 -1.769531 1.125 -2.34375 C 0.875 -2.914062 0.75 -3.59375 0.75 -4.375 C 0.75 -4.882812 0.832031 -5.394531 1 -5.90625 C 1.175781 -6.425781 1.4375 -6.890625 1.78125 -7.296875 C 2.125 -7.710938 2.566406 -8.050781 3.109375 -8.3125 C 3.660156 -8.570312 4.316406 -8.703125 5.078125 -8.703125 C 5.753906 -8.703125 6.347656 -8.582031 6.859375 -8.34375 C 7.367188 -8.113281 7.789062 -7.796875 8.125 -7.390625 C 8.457031 -6.984375 8.703125 -6.5 8.859375 -5.9375 C 9.023438 -5.382812 9.109375 -4.773438 9.109375 -4.109375 Z M 4.984375 -8.03125 C 4.515625 -8.03125 4.101562 -7.929688 3.75 -7.734375 C 3.40625 -7.546875 3.109375 -7.300781 2.859375 -7 C 2.617188 -6.707031 2.429688 -6.367188 2.296875 -5.984375 C 2.160156 -5.609375 2.070312 -5.226562 2.03125 -4.84375 L 7.84375 -4.84375 C 7.832031 -5.238281 7.757812 -5.625 7.625 -6 C 7.5 -6.382812 7.320312 -6.726562 7.09375 -7.03125 C 6.863281 -7.332031 6.570312 -7.570312 6.21875 -7.75 C 5.863281 -7.9375 5.453125 -8.03125 4.984375 -8.03125 Z M 4.984375 -8.03125 "/></g></g></g><g fill="#ffffff" fill-opacity="1"><g transform="translate(80.651753, 81.863573)"><g/></g></g><g fill="#ffffff" fill-opacity="1"><g transform="translate(85.949351, 81.863573)"><g><path d="M 2.59375 -12.734375 C 2.59375 -12.648438 2.613281 -12.546875 2.65625 -12.421875 L 6.234375 -2.765625 L 9.828125 -12.53125 C 9.835938 -12.5625 9.847656 -12.601562 9.859375 -12.65625 C 9.867188 -12.707031 9.875 -12.75 9.875 -12.78125 C 9.875 -12.9375 9.8125 -13.050781 9.6875 -13.125 C 9.5625 -13.207031 9.441406 -13.25 9.328125 -13.25 L 9.328125 -13.453125 L 11.546875 -13.453125 L 11.546875 -13.25 C 11.347656 -13.25 11.160156 -13.191406 10.984375 -13.078125 C 10.816406 -12.972656 10.6875 -12.789062 10.59375 -12.53125 L 5.921875 0.25 L 1.15625 -12.46875 C 1.082031 -12.675781 0.96875 -12.851562 0.8125 -13 C 0.65625 -13.144531 0.457031 -13.226562 0.21875 -13.25 L 0.21875 -13.453125 L 3.125 -13.453125 L 3.125 -13.25 C 3 -13.25 2.878906 -13.203125 2.765625 -13.109375 C 2.648438 -13.023438 2.59375 -12.898438 2.59375 -12.734375 Z M 2.59375 -12.734375 "/></g></g></g><g fill="#ffffff" fill-opacity="1"><g transform="translate(97.950447, 81.863573)"><g><path d="M 1.203125 0 L 1.203125 -0.203125 C 1.304688 -0.203125 1.398438 -0.242188 1.484375 -0.328125 C 1.566406 -0.410156 1.632812 -0.503906 1.6875 -0.609375 C 1.738281 -0.722656 1.78125 -0.84375 1.8125 -0.96875 C 1.84375 -1.09375 1.859375 -1.210938 1.859375 -1.328125 L 1.859375 -6.96875 C 1.859375 -7.195312 1.820312 -7.414062 1.75 -7.625 C 1.6875 -7.84375 1.488281 -7.957031 1.15625 -7.96875 L 1.15625 -8.15625 L 3.203125 -8.796875 L 3.203125 -1.328125 C 3.203125 -1.210938 3.210938 -1.09375 3.234375 -0.96875 C 3.265625 -0.84375 3.304688 -0.722656 3.359375 -0.609375 C 3.410156 -0.503906 3.476562 -0.410156 3.5625 -0.328125 C 3.644531 -0.242188 3.738281 -0.203125 3.84375 -0.203125 L 3.84375 0 Z M 1.296875 -10.765625 C 1.296875 -11.035156 1.390625 -11.265625 1.578125 -11.453125 C 1.765625 -11.640625 1.992188 -11.734375 2.265625 -11.734375 C 2.535156 -11.734375 2.765625 -11.640625 2.953125 -11.453125 C 3.140625 -11.265625 3.234375 -11.035156 3.234375 -10.765625 C 3.234375 -10.484375 3.140625 -10.253906 2.953125 -10.078125 C 2.765625 -9.910156 2.535156 -9.828125 2.265625 -9.828125 C 1.992188 -9.828125 1.765625 -9.910156 1.578125 -10.078125 C 1.390625 -10.253906 1.296875 -10.484375 1.296875 -10.765625 Z M 1.296875 -10.765625 "/></g></g></g><g fill="#ffffff" fill-opacity="1"><g transform="translate(103.064668, 81.863573)"><g><path d="M 7.53125 -2.328125 C 7.53125 -1.972656 7.441406 -1.644531 7.265625 -1.34375 C 7.097656 -1.039062 6.859375 -0.773438 6.546875 -0.546875 C 6.242188 -0.328125 5.890625 -0.15625 5.484375 -0.03125 C 5.078125 0.09375 4.632812 0.15625 4.15625 0.15625 C 3.570312 0.15625 3.097656 0.078125 2.734375 -0.078125 C 2.367188 -0.234375 2.054688 -0.390625 1.796875 -0.546875 C 1.617188 -0.660156 1.453125 -0.753906 1.296875 -0.828125 C 1.148438 -0.898438 0.988281 -0.9375 0.8125 -0.9375 L 0.8125 -2.484375 L 1.015625 -2.484375 C 1.054688 -2.296875 1.175781 -2.085938 1.375 -1.859375 C 1.570312 -1.640625 1.804688 -1.429688 2.078125 -1.234375 C 2.359375 -1.046875 2.664062 -0.890625 3 -0.765625 C 3.332031 -0.640625 3.671875 -0.578125 4.015625 -0.578125 C 4.253906 -0.578125 4.503906 -0.601562 4.765625 -0.65625 C 5.023438 -0.707031 5.257812 -0.789062 5.46875 -0.90625 C 5.675781 -1.03125 5.851562 -1.1875 6 -1.375 C 6.144531 -1.5625 6.21875 -1.78125 6.21875 -2.03125 C 6.21875 -2.289062 6.140625 -2.515625 5.984375 -2.703125 C 5.835938 -2.898438 5.648438 -3.066406 5.421875 -3.203125 C 5.191406 -3.347656 4.925781 -3.472656 4.625 -3.578125 C 4.320312 -3.691406 4.023438 -3.796875 3.734375 -3.890625 C 3.378906 -3.992188 3.019531 -4.113281 2.65625 -4.25 C 2.300781 -4.394531 1.976562 -4.554688 1.6875 -4.734375 C 1.40625 -4.921875 1.175781 -5.144531 1 -5.40625 C 0.820312 -5.675781 0.734375 -5.992188 0.734375 -6.359375 C 0.734375 -6.671875 0.789062 -6.96875 0.90625 -7.25 C 1.019531 -7.539062 1.207031 -7.789062 1.46875 -8 C 1.738281 -8.207031 2.082031 -8.375 2.5 -8.5 C 2.925781 -8.632812 3.4375 -8.703125 4.03125 -8.703125 C 4.5625 -8.703125 4.972656 -8.65625 5.265625 -8.5625 C 5.554688 -8.476562 5.796875 -8.390625 5.984375 -8.296875 C 6.109375 -8.222656 6.234375 -8.171875 6.359375 -8.140625 C 6.484375 -8.109375 6.617188 -8.09375 6.765625 -8.09375 L 6.765625 -6.65625 L 6.59375 -6.65625 C 6.351562 -7.101562 5.984375 -7.441406 5.484375 -7.671875 C 4.984375 -7.910156 4.46875 -8.03125 3.9375 -8.03125 C 3.59375 -8.03125 3.296875 -7.984375 3.046875 -7.890625 C 2.804688 -7.804688 2.609375 -7.695312 2.453125 -7.5625 C 2.296875 -7.4375 2.179688 -7.289062 2.109375 -7.125 C 2.035156 -6.96875 2 -6.804688 2 -6.640625 C 2 -6.410156 2.0625 -6.210938 2.1875 -6.046875 C 2.320312 -5.890625 2.5 -5.75 2.71875 -5.625 C 2.945312 -5.5 3.195312 -5.378906 3.46875 -5.265625 C 3.75 -5.160156 4.046875 -5.0625 4.359375 -4.96875 C 4.742188 -4.84375 5.125 -4.707031 5.5 -4.5625 C 5.882812 -4.425781 6.222656 -4.253906 6.515625 -4.046875 C 6.816406 -3.847656 7.0625 -3.609375 7.25 -3.328125 C 7.4375 -3.046875 7.53125 -2.710938 7.53125 -2.328125 Z M 7.53125 -2.328125 "/></g></g></g><g fill="#ffffff" fill-opacity="1"><g transform="translate(111.438945, 81.863573)"><g><path d="M 1.203125 0 L 1.203125 -0.203125 C 1.304688 -0.203125 1.398438 -0.242188 1.484375 -0.328125 C 1.566406 -0.410156 1.632812 -0.503906 1.6875 -0.609375 C 1.738281 -0.722656 1.78125 -0.84375 1.8125 -0.96875 C 1.84375 -1.09375 1.859375 -1.210938 1.859375 -1.328125 L 1.859375 -6.96875 C 1.859375 -7.195312 1.820312 -7.414062 1.75 -7.625 C 1.6875 -7.84375 1.488281 -7.957031 1.15625 -7.96875 L 1.15625 -8.15625 L 3.203125 -8.796875 L 3.203125 -1.328125 C 3.203125 -1.210938 3.210938 -1.09375 3.234375 -0.96875 C 3.265625 -0.84375 3.304688 -0.722656 3.359375 -0.609375 C 3.410156 -0.503906 3.476562 -0.410156 3.5625 -0.328125 C 3.644531 -0.242188 3.738281 -0.203125 3.84375 -0.203125 L 3.84375 0 Z M 1.296875 -10.765625 C 1.296875 -11.035156 1.390625 -11.265625 1.578125 -11.453125 C 1.765625 -11.640625 1.992188 -11.734375 2.265625 -11.734375 C 2.535156 -11.734375 2.765625 -11.640625 2.953125 -11.453125 C 3.140625 -11.265625 3.234375 -11.035156 3.234375 -10.765625 C 3.234375 -10.484375 3.140625 -10.253906 2.953125 -10.078125 C 2.765625 -9.910156 2.535156 -9.828125 2.265625 -9.828125 C 1.992188 -9.828125 1.765625 -9.910156 1.578125 -10.078125 C 1.390625 -10.253906 1.296875 -10.484375 1.296875 -10.765625 Z M 1.296875 -10.765625 "/></g></g></g><g fill="#ffffff" fill-opacity="1"><g transform="translate(116.553166, 81.863573)"><g><path d="M 5.203125 0.140625 C 4.515625 0.140625 3.898438 0.03125 3.359375 -0.1875 C 2.816406 -0.414062 2.351562 -0.722656 1.96875 -1.109375 C 1.582031 -1.492188 1.28125 -1.953125 1.0625 -2.484375 C 0.851562 -3.015625 0.75 -3.59375 0.75 -4.21875 C 0.75 -4.882812 0.863281 -5.488281 1.09375 -6.03125 C 1.332031 -6.582031 1.65625 -7.054688 2.0625 -7.453125 C 2.46875 -7.847656 2.945312 -8.15625 3.5 -8.375 C 4.0625 -8.59375 4.664062 -8.703125 5.3125 -8.703125 C 5.96875 -8.703125 6.566406 -8.59375 7.109375 -8.375 C 7.648438 -8.164062 8.117188 -7.867188 8.515625 -7.484375 C 8.910156 -7.109375 9.21875 -6.660156 9.4375 -6.140625 C 9.65625 -5.617188 9.765625 -5.046875 9.765625 -4.421875 C 9.765625 -3.835938 9.664062 -3.269531 9.46875 -2.71875 C 9.269531 -2.164062 8.972656 -1.675781 8.578125 -1.25 C 8.191406 -0.832031 7.71875 -0.492188 7.15625 -0.234375 C 6.59375 0.015625 5.941406 0.140625 5.203125 0.140625 Z M 5.078125 -8.03125 C 4.585938 -8 4.15625 -7.878906 3.78125 -7.671875 C 3.40625 -7.460938 3.09375 -7.191406 2.84375 -6.859375 C 2.59375 -6.523438 2.398438 -6.144531 2.265625 -5.71875 C 2.140625 -5.300781 2.078125 -4.875 2.078125 -4.4375 C 2.078125 -3.9375 2.15625 -3.453125 2.3125 -2.984375 C 2.46875 -2.515625 2.691406 -2.097656 2.984375 -1.734375 C 3.273438 -1.367188 3.625 -1.078125 4.03125 -0.859375 C 4.4375 -0.640625 4.894531 -0.53125 5.40625 -0.53125 C 5.90625 -0.53125 6.347656 -0.640625 6.734375 -0.859375 C 7.117188 -1.078125 7.441406 -1.359375 7.703125 -1.703125 C 7.960938 -2.046875 8.15625 -2.4375 8.28125 -2.875 C 8.40625 -3.3125 8.46875 -3.742188 8.46875 -4.171875 C 8.46875 -4.617188 8.398438 -5.070312 8.265625 -5.53125 C 8.128906 -5.988281 7.921875 -6.398438 7.640625 -6.765625 C 7.359375 -7.140625 7 -7.441406 6.5625 -7.671875 C 6.132812 -7.910156 5.640625 -8.03125 5.078125 -8.03125 Z M 5.078125 -8.03125 "/></g></g></g><g fill="#ffffff" fill-opacity="1"><g transform="translate(127.209487, 81.863573)"><g><path d="M 9.109375 -1.328125 C 9.109375 -1.210938 9.117188 -1.09375 9.140625 -0.96875 C 9.171875 -0.84375 9.21875 -0.722656 9.28125 -0.609375 C 9.34375 -0.503906 9.410156 -0.410156 9.484375 -0.328125 C 9.554688 -0.242188 9.648438 -0.203125 9.765625 -0.203125 L 9.765625 0 L 7.125 0 L 7.125 -0.203125 C 7.226562 -0.203125 7.316406 -0.242188 7.390625 -0.328125 C 7.472656 -0.410156 7.546875 -0.503906 7.609375 -0.609375 C 7.671875 -0.722656 7.710938 -0.84375 7.734375 -0.96875 C 7.765625 -1.09375 7.78125 -1.210938 7.78125 -1.328125 L 7.78125 -5.109375 C 7.78125 -5.597656 7.710938 -6.023438 7.578125 -6.390625 C 7.441406 -6.765625 7.257812 -7.070312 7.03125 -7.3125 C 6.800781 -7.5625 6.539062 -7.742188 6.25 -7.859375 C 5.957031 -7.972656 5.660156 -8.03125 5.359375 -8.03125 C 5.054688 -8.03125 4.757812 -7.96875 4.46875 -7.84375 C 4.175781 -7.71875 3.914062 -7.554688 3.6875 -7.359375 C 3.46875 -7.160156 3.285156 -6.929688 3.140625 -6.671875 C 3.003906 -6.410156 2.9375 -6.132812 2.9375 -5.84375 L 2.9375 -1.328125 C 2.9375 -1.210938 2.945312 -1.09375 2.96875 -0.96875 C 3 -0.84375 3.046875 -0.722656 3.109375 -0.609375 C 3.171875 -0.503906 3.238281 -0.410156 3.3125 -0.328125 C 3.382812 -0.242188 3.476562 -0.203125 3.59375 -0.203125 L 3.59375 0 L 0.9375 0 L 0.9375 -0.203125 C 1.03125 -0.203125 1.117188 -0.242188 1.203125 -0.328125 C 1.285156 -0.410156 1.351562 -0.503906 1.40625 -0.609375 C 1.46875 -0.722656 1.515625 -0.84375 1.546875 -0.96875 C 1.578125 -1.09375 1.59375 -1.210938 1.59375 -1.328125 L 1.59375 -6.953125 C 1.59375 -7.179688 1.554688 -7.398438 1.484375 -7.609375 C 1.421875 -7.816406 1.222656 -7.929688 0.890625 -7.953125 L 0.890625 -8.125 L 2.9375 -8.78125 L 2.9375 -7.65625 C 3.03125 -7.769531 3.148438 -7.890625 3.296875 -8.015625 C 3.453125 -8.148438 3.632812 -8.273438 3.84375 -8.390625 C 4.050781 -8.503906 4.289062 -8.597656 4.5625 -8.671875 C 4.84375 -8.742188 5.175781 -8.78125 5.5625 -8.78125 C 6.195312 -8.78125 6.738281 -8.671875 7.1875 -8.453125 C 7.632812 -8.234375 8 -7.953125 8.28125 -7.609375 C 8.570312 -7.265625 8.78125 -6.882812 8.90625 -6.46875 C 9.039062 -6.050781 9.109375 -5.644531 9.109375 -5.25 Z M 9.109375 -1.328125 "/></g></g></g><g fill="#ffffff" fill-opacity="1"><g transform="translate(23.521696, 91.687417)"><g><path d="M 5.328125 -2.53125 C 5.328125 -2.144531 5.265625 -1.796875 5.140625 -1.484375 C 5.023438 -1.171875 4.851562 -0.898438 4.625 -0.671875 C 4.40625 -0.441406 4.144531 -0.265625 3.84375 -0.140625 C 3.539062 -0.015625 3.203125 0.046875 2.828125 0.046875 C 2.453125 0.046875 2.109375 -0.015625 1.796875 -0.140625 C 1.492188 -0.265625 1.234375 -0.441406 1.015625 -0.671875 C 0.796875 -0.898438 0.625 -1.171875 0.5 -1.484375 C 0.382812 -1.796875 0.328125 -2.144531 0.328125 -2.53125 C 0.328125 -2.90625 0.382812 -3.25 0.5 -3.5625 C 0.625 -3.882812 0.796875 -4.160156 1.015625 -4.390625 C 1.234375 -4.617188 1.492188 -4.796875 1.796875 -4.921875 C 2.109375 -5.046875 2.453125 -5.109375 2.828125 -5.109375 C 3.203125 -5.109375 3.539062 -5.046875 3.84375 -4.921875 C 4.144531 -4.796875 4.40625 -4.617188 4.625 -4.390625 C 4.851562 -4.160156 5.023438 -3.882812 5.140625 -3.5625 C 5.265625 -3.25 5.328125 -2.90625 5.328125 -2.53125 Z M 4.625 -2.53125 C 4.625 -2.84375 4.578125 -3.117188 4.484375 -3.359375 C 4.398438 -3.609375 4.28125 -3.816406 4.125 -3.984375 C 3.976562 -4.160156 3.789062 -4.296875 3.5625 -4.390625 C 3.34375 -4.484375 3.097656 -4.53125 2.828125 -4.53125 C 2.554688 -4.53125 2.304688 -4.484375 2.078125 -4.390625 C 1.859375 -4.296875 1.671875 -4.160156 1.515625 -3.984375 C 1.359375 -3.816406 1.238281 -3.609375 1.15625 -3.359375 C 1.070312 -3.117188 1.03125 -2.84375 1.03125 -2.53125 C 1.03125 -2.21875 1.070312 -1.9375 1.15625 -1.6875 C 1.238281 -1.445312 1.359375 -1.238281 1.515625 -1.0625 C 1.671875 -0.894531 1.859375 -0.765625 2.078125 -0.671875 C 2.304688 -0.585938 2.554688 -0.546875 2.828125 -0.546875 C 3.097656 -0.546875 3.34375 -0.585938 3.5625 -0.671875 C 3.789062 -0.765625 3.976562 -0.894531 4.125 -1.0625 C 4.28125 -1.238281 4.398438 -1.445312 4.484375 -1.6875 C 4.578125 -1.9375 4.625 -2.21875 4.625 -2.53125 Z M 4.625 -2.53125 "/></g></g></g><g fill="#ffffff" fill-opacity="1"><g transform="translate(31.257322, 91.687417)"><g><path d="M 7.203125 -5.0625 L 5.625 0 L 5.015625 0 L 3.734375 -3.859375 C 3.722656 -3.898438 3.707031 -3.941406 3.6875 -3.984375 C 3.675781 -4.023438 3.664062 -4.066406 3.65625 -4.109375 C 3.644531 -4.066406 3.632812 -4.023438 3.625 -3.984375 C 3.613281 -3.941406 3.601562 -3.898438 3.59375 -3.859375 L 2.296875 0 L 1.6875 0 L 0.109375 -5.0625 L 0.671875 -5.0625 C 0.734375 -5.0625 0.785156 -5.046875 0.828125 -5.015625 C 0.867188 -4.984375 0.894531 -4.941406 0.90625 -4.890625 L 1.953125 -1.375 C 1.972656 -1.3125 1.988281 -1.242188 2 -1.171875 C 2.019531 -1.097656 2.035156 -1.019531 2.046875 -0.9375 C 2.066406 -1.019531 2.082031 -1.097656 2.09375 -1.171875 C 2.113281 -1.242188 2.132812 -1.3125 2.15625 -1.375 L 3.34375 -4.890625 C 3.363281 -4.929688 3.394531 -4.96875 3.4375 -5 C 3.476562 -5.039062 3.523438 -5.0625 3.578125 -5.0625 L 3.78125 -5.0625 C 3.84375 -5.0625 3.890625 -5.046875 3.921875 -5.015625 C 3.960938 -4.984375 3.992188 -4.941406 4.015625 -4.890625 L 5.203125 -1.375 C 5.222656 -1.3125 5.238281 -1.242188 5.25 -1.171875 C 5.269531 -1.109375 5.289062 -1.035156 5.3125 -0.953125 C 5.320312 -1.035156 5.332031 -1.109375 5.34375 -1.171875 C 5.363281 -1.242188 5.378906 -1.3125 5.390625 -1.375 L 6.4375 -4.890625 C 6.445312 -4.941406 6.472656 -4.984375 6.515625 -5.015625 C 6.554688 -5.046875 6.609375 -5.0625 6.671875 -5.0625 Z M 7.203125 -5.0625 "/></g></g></g><g fill="#ffffff" fill-opacity="1"><g transform="translate(40.652262, 91.687417)"><g><path d="M 4.75 -5.0625 L 4.75 0 L 4.40625 0 C 4.351562 0 4.304688 -0.0078125 4.265625 -0.03125 C 4.234375 -0.0507812 4.195312 -0.0820312 4.15625 -0.125 L 1.234375 -3.9375 C 1.234375 -3.875 1.234375 -3.8125 1.234375 -3.75 C 1.242188 -3.695312 1.25 -3.648438 1.25 -3.609375 L 1.25 0 L 0.640625 0 L 0.640625 -5.0625 L 1 -5.0625 C 1.03125 -5.0625 1.054688 -5.054688 1.078125 -5.046875 C 1.097656 -5.046875 1.113281 -5.039062 1.125 -5.03125 C 1.144531 -5.03125 1.160156 -5.019531 1.171875 -5 C 1.191406 -4.988281 1.210938 -4.96875 1.234375 -4.9375 L 4.15625 -1.140625 C 4.15625 -1.191406 4.148438 -1.242188 4.140625 -1.296875 C 4.140625 -1.359375 4.140625 -1.414062 4.140625 -1.46875 L 4.140625 -5.0625 Z M 4.75 -5.0625 "/></g></g></g><g fill="#ffffff" fill-opacity="1"><g transform="translate(48.126634, 91.687417)"><g/></g></g><g fill="#ffffff" fill-opacity="1"><g transform="translate(52.017593, 91.687417)"><g><path d="M 2.546875 -2.015625 L 2.546875 0 L 1.859375 0 L 1.859375 -2.015625 L 0 -5.0625 L 0.609375 -5.0625 C 0.671875 -5.0625 0.71875 -5.046875 0.75 -5.015625 C 0.789062 -4.984375 0.820312 -4.945312 0.84375 -4.90625 L 2 -2.9375 C 2.039062 -2.851562 2.078125 -2.773438 2.109375 -2.703125 C 2.148438 -2.628906 2.179688 -2.554688 2.203125 -2.484375 C 2.234375 -2.554688 2.265625 -2.628906 2.296875 -2.703125 C 2.328125 -2.773438 2.363281 -2.851562 2.40625 -2.9375 L 3.5625 -4.90625 C 3.582031 -4.945312 3.609375 -4.984375 3.640625 -5.015625 C 3.679688 -5.046875 3.734375 -5.0625 3.796875 -5.0625 L 4.40625 -5.0625 Z M 2.546875 -2.015625 "/></g></g></g><g fill="#ffffff" fill-opacity="1"><g transform="translate(58.506968, 91.687417)"><g><path d="M 5.328125 -2.53125 C 5.328125 -2.144531 5.265625 -1.796875 5.140625 -1.484375 C 5.023438 -1.171875 4.851562 -0.898438 4.625 -0.671875 C 4.40625 -0.441406 4.144531 -0.265625 3.84375 -0.140625 C 3.539062 -0.015625 3.203125 0.046875 2.828125 0.046875 C 2.453125 0.046875 2.109375 -0.015625 1.796875 -0.140625 C 1.492188 -0.265625 1.234375 -0.441406 1.015625 -0.671875 C 0.796875 -0.898438 0.625 -1.171875 0.5 -1.484375 C 0.382812 -1.796875 0.328125 -2.144531 0.328125 -2.53125 C 0.328125 -2.90625 0.382812 -3.25 0.5 -3.5625 C 0.625 -3.882812 0.796875 -4.160156 1.015625 -4.390625 C 1.234375 -4.617188 1.492188 -4.796875 1.796875 -4.921875 C 2.109375 -5.046875 2.453125 -5.109375 2.828125 -5.109375 C 3.203125 -5.109375 3.539062 -5.046875 3.84375 -4.921875 C 4.144531 -4.796875 4.40625 -4.617188 4.625 -4.390625 C 4.851562 -4.160156 5.023438 -3.882812 5.140625 -3.5625 C 5.265625 -3.25 5.328125 -2.90625 5.328125 -2.53125 Z M 4.625 -2.53125 C 4.625 -2.84375 4.578125 -3.117188 4.484375 -3.359375 C 4.398438 -3.609375 4.28125 -3.816406 4.125 -3.984375 C 3.976562 -4.160156 3.789062 -4.296875 3.5625 -4.390625 C 3.34375 -4.484375 3.097656 -4.53125 2.828125 -4.53125 C 2.554688 -4.53125 2.304688 -4.484375 2.078125 -4.390625 C 1.859375 -4.296875 1.671875 -4.160156 1.515625 -3.984375 C 1.359375 -3.816406 1.238281 -3.609375 1.15625 -3.359375 C 1.070312 -3.117188 1.03125 -2.84375 1.03125 -2.53125 C 1.03125 -2.21875 1.070312 -1.9375 1.15625 -1.6875 C 1.238281 -1.445312 1.359375 -1.238281 1.515625 -1.0625 C 1.671875 -0.894531 1.859375 -0.765625 2.078125 -0.671875 C 2.304688 -0.585938 2.554688 -0.546875 2.828125 -0.546875 C 3.097656 -0.546875 3.34375 -0.585938 3.5625 -0.671875 C 3.789062 -0.765625 3.976562 -0.894531 4.125 -1.0625 C 4.28125 -1.238281 4.398438 -1.445312 4.484375 -1.6875 C 4.578125 -1.9375 4.625 -2.21875 4.625 -2.53125 Z M 4.625 -2.53125 "/></g></g></g><g fill="#ffffff" fill-opacity="1"><g transform="translate(66.242594, 91.687417)"><g><path d="M 2.59375 -0.546875 C 2.800781 -0.546875 2.988281 -0.578125 3.15625 -0.640625 C 3.320312 -0.710938 3.460938 -0.8125 3.578125 -0.9375 C 3.691406 -1.070312 3.78125 -1.226562 3.84375 -1.40625 C 3.90625 -1.582031 3.9375 -1.773438 3.9375 -1.984375 L 3.9375 -5.0625 L 4.609375 -5.0625 L 4.609375 -1.984375 C 4.609375 -1.691406 4.5625 -1.421875 4.46875 -1.171875 C 4.375 -0.921875 4.238281 -0.703125 4.0625 -0.515625 C 3.894531 -0.335938 3.6875 -0.195312 3.4375 -0.09375 C 3.1875 0.0078125 2.90625 0.0625 2.59375 0.0625 C 2.289062 0.0625 2.015625 0.0078125 1.765625 -0.09375 C 1.515625 -0.195312 1.300781 -0.335938 1.125 -0.515625 C 0.945312 -0.703125 0.8125 -0.921875 0.71875 -1.171875 C 0.625 -1.421875 0.578125 -1.691406 0.578125 -1.984375 L 0.578125 -5.0625 L 1.265625 -5.0625 L 1.265625 -1.984375 C 1.265625 -1.773438 1.289062 -1.582031 1.34375 -1.40625 C 1.40625 -1.226562 1.492188 -1.078125 1.609375 -0.953125 C 1.722656 -0.828125 1.863281 -0.726562 2.03125 -0.65625 C 2.195312 -0.582031 2.382812 -0.546875 2.59375 -0.546875 Z M 2.59375 -0.546875 "/></g></g></g><g fill="#ffffff" fill-opacity="1"><g transform="translate(73.519257, 91.687417)"><g><path d="M 2.046875 -2.609375 C 2.242188 -2.609375 2.414062 -2.628906 2.5625 -2.671875 C 2.71875 -2.722656 2.847656 -2.789062 2.953125 -2.875 C 3.054688 -2.96875 3.132812 -3.078125 3.1875 -3.203125 C 3.238281 -3.328125 3.265625 -3.460938 3.265625 -3.609375 C 3.265625 -3.910156 3.164062 -4.132812 2.96875 -4.28125 C 2.769531 -4.4375 2.472656 -4.515625 2.078125 -4.515625 L 1.328125 -4.515625 L 1.328125 -2.609375 Z M 4.390625 0 L 3.78125 0 C 3.65625 0 3.5625 -0.046875 3.5 -0.140625 L 2.1875 -1.953125 C 2.144531 -2.003906 2.097656 -2.039062 2.046875 -2.0625 C 2.003906 -2.09375 1.9375 -2.109375 1.84375 -2.109375 L 1.328125 -2.109375 L 1.328125 0 L 0.640625 0 L 0.640625 -5.0625 L 2.078125 -5.0625 C 2.398438 -5.0625 2.675781 -5.023438 2.90625 -4.953125 C 3.132812 -4.890625 3.328125 -4.796875 3.484375 -4.671875 C 3.640625 -4.554688 3.753906 -4.410156 3.828125 -4.234375 C 3.898438 -4.066406 3.9375 -3.875 3.9375 -3.65625 C 3.9375 -3.476562 3.90625 -3.3125 3.84375 -3.15625 C 3.789062 -3 3.707031 -2.859375 3.59375 -2.734375 C 3.488281 -2.609375 3.359375 -2.503906 3.203125 -2.421875 C 3.054688 -2.335938 2.882812 -2.269531 2.6875 -2.21875 C 2.769531 -2.175781 2.84375 -2.109375 2.90625 -2.015625 Z M 4.390625 0 "/></g></g></g><g fill="#ffffff" fill-opacity="1"><g transform="translate(80.026287, 91.687417)"><g/></g></g><g fill="#ffffff" fill-opacity="1"><g transform="translate(83.917246, 91.687417)"><g><path d="M 1.328125 -4.5 L 1.328125 -2.734375 L 3.40625 -2.734375 L 3.40625 -2.171875 L 1.328125 -2.171875 L 1.328125 0 L 0.640625 0 L 0.640625 -5.0625 L 3.765625 -5.0625 L 3.765625 -4.5 Z M 1.328125 -4.5 "/></g></g></g><g fill="#ffffff" fill-opacity="1"><g transform="translate(89.993557, 91.687417)"><g><path d="M 2.59375 -0.546875 C 2.800781 -0.546875 2.988281 -0.578125 3.15625 -0.640625 C 3.320312 -0.710938 3.460938 -0.8125 3.578125 -0.9375 C 3.691406 -1.070312 3.78125 -1.226562 3.84375 -1.40625 C 3.90625 -1.582031 3.9375 -1.773438 3.9375 -1.984375 L 3.9375 -5.0625 L 4.609375 -5.0625 L 4.609375 -1.984375 C 4.609375 -1.691406 4.5625 -1.421875 4.46875 -1.171875 C 4.375 -0.921875 4.238281 -0.703125 4.0625 -0.515625 C 3.894531 -0.335938 3.6875 -0.195312 3.4375 -0.09375 C 3.1875 0.0078125 2.90625 0.0625 2.59375 0.0625 C 2.289062 0.0625 2.015625 0.0078125 1.765625 -0.09375 C 1.515625 -0.195312 1.300781 -0.335938 1.125 -0.515625 C 0.945312 -0.703125 0.8125 -0.921875 0.71875 -1.171875 C 0.625 -1.421875 0.578125 -1.691406 0.578125 -1.984375 L 0.578125 -5.0625 L 1.265625 -5.0625 L 1.265625 -1.984375 C 1.265625 -1.773438 1.289062 -1.582031 1.34375 -1.40625 C 1.40625 -1.226562 1.492188 -1.078125 1.609375 -0.953125 C 1.722656 -0.828125 1.863281 -0.726562 2.03125 -0.65625 C 2.195312 -0.582031 2.382812 -0.546875 2.59375 -0.546875 Z M 2.59375 -0.546875 "/></g></g></g><g fill="#ffffff" fill-opacity="1"><g transform="translate(97.270223, 91.687417)"><g><path d="M 4.0625 -4.484375 L 2.421875 -4.484375 L 2.421875 0 L 1.75 0 L 1.75 -4.484375 L 0.109375 -4.484375 L 0.109375 -5.0625 L 4.0625 -5.0625 Z M 4.0625 -4.484375 "/></g></g></g><g fill="#ffffff" fill-opacity="1"><g transform="translate(103.523056, 91.687417)"><g><path d="M 2.59375 -0.546875 C 2.800781 -0.546875 2.988281 -0.578125 3.15625 -0.640625 C 3.320312 -0.710938 3.460938 -0.8125 3.578125 -0.9375 C 3.691406 -1.070312 3.78125 -1.226562 3.84375 -1.40625 C 3.90625 -1.582031 3.9375 -1.773438 3.9375 -1.984375 L 3.9375 -5.0625 L 4.609375 -5.0625 L 4.609375 -1.984375 C 4.609375 -1.691406 4.5625 -1.421875 4.46875 -1.171875 C 4.375 -0.921875 4.238281 -0.703125 4.0625 -0.515625 C 3.894531 -0.335938 3.6875 -0.195312 3.4375 -0.09375 C 3.1875 0.0078125 2.90625 0.0625 2.59375 0.0625 C 2.289062 0.0625 2.015625 0.0078125 1.765625 -0.09375 C 1.515625 -0.195312 1.300781 -0.335938 1.125 -0.515625 C 0.945312 -0.703125 0.8125 -0.921875 0.71875 -1.171875 C 0.625 -1.421875 0.578125 -1.691406 0.578125 -1.984375 L 0.578125 -5.0625 L 1.265625 -5.0625 L 1.265625 -1.984375 C 1.265625 -1.773438 1.289062 -1.582031 1.34375 -1.40625 C 1.40625 -1.226562 1.492188 -1.078125 1.609375 -0.953125 C 1.722656 -0.828125 1.863281 -0.726562 2.03125 -0.65625 C 2.195312 -0.582031 2.382812 -0.546875 2.59375 -0.546875 Z M 2.59375 -0.546875 "/></g></g></g><g fill="#ffffff" fill-opacity="1"><g transform="translate(110.799722, 91.687417)"><g><path d="M 2.046875 -2.609375 C 2.242188 -2.609375 2.414062 -2.628906 2.5625 -2.671875 C 2.71875 -2.722656 2.847656 -2.789062 2.953125 -2.875 C 3.054688 -2.96875 3.132812 -3.078125 3.1875 -3.203125 C 3.238281 -3.328125 3.265625 -3.460938 3.265625 -3.609375 C 3.265625 -3.910156 3.164062 -4.132812 2.96875 -4.28125 C 2.769531 -4.4375 2.472656 -4.515625 2.078125 -4.515625 L 1.328125 -4.515625 L 1.328125 -2.609375 Z M 4.390625 0 L 3.78125 0 C 3.65625 0 3.5625 -0.046875 3.5 -0.140625 L 2.1875 -1.953125 C 2.144531 -2.003906 2.097656 -2.039062 2.046875 -2.0625 C 2.003906 -2.09375 1.9375 -2.109375 1.84375 -2.109375 L 1.328125 -2.109375 L 1.328125 0 L 0.640625 0 L 0.640625 -5.0625 L 2.078125 -5.0625 C 2.398438 -5.0625 2.675781 -5.023438 2.90625 -4.953125 C 3.132812 -4.890625 3.328125 -4.796875 3.484375 -4.671875 C 3.640625 -4.554688 3.753906 -4.410156 3.828125 -4.234375 C 3.898438 -4.066406 3.9375 -3.875 3.9375 -3.65625 C 3.9375 -3.476562 3.90625 -3.3125 3.84375 -3.15625 C 3.789062 -3 3.707031 -2.859375 3.59375 -2.734375 C 3.488281 -2.609375 3.359375 -2.503906 3.203125 -2.421875 C 3.054688 -2.335938 2.882812 -2.269531 2.6875 -2.21875 C 2.769531 -2.175781 2.84375 -2.109375 2.90625 -2.015625 Z M 4.390625 0 "/></g></g></g><g fill="#ffffff" fill-opacity="1"><g transform="translate(117.306752, 91.687417)"><g><path d="M 3.765625 -0.5625 L 3.765625 0 L 0.640625 0 L 0.640625 -5.0625 L 3.765625 -5.0625 L 3.765625 -4.5 L 1.328125 -4.5 L 1.328125 -2.828125 L 3.296875 -2.828125 L 3.296875 -2.28125 L 1.328125 -2.28125 L 1.328125 -0.5625 Z M 3.765625 -0.5625 "/></g></g></g></svg>